<?xml version="1.0" encoding="UTF-8"?>
<svg xmlns="http://www.w3.org/2000/svg" version="1.1" id="isi" viewBox="0 0 50 50">
    <rect fill="#014063" width="50" height="50" ry="5.75" />
    <rect fill="white" x="6.8279" y="28.288" width="5.4477" height="5.3443" ry=".87241" />
    <path fill="white" d="m39.646 16.477c-0.48332 1.6e-5 -0.88602 0.38944-0.87228 0.87257l0.08391 2.9383c0.03924 1.3738 1.8091 1.3769 1.8182 2.3481v4.2179c0 0.42684 0.38925 0.87226 0.8726 0.87226h3.7089c0.48332 0 0.8726-0.38892 0.8726-0.87226v-9.5042c0-0.48331-0.38926-0.87257-0.8726-0.87257z" />
    <rect fill="white" x="9.4382" y="22.383" width="5.4477" height="5.3443" ry=".87241" />
    <rect fill="white" x="3.4313" y="22.383" width="5.4477" height="5.3443" ry=".87241" />
    <rect fill="white" x="7.5354" y="16.477" width="5.4477" height="5.3443" ry=".87241" />
    <rect fill="white" x="36.006" y="10.572" width="10.122" height="5.3443" ry=".87241" />
    <path fill="white" d="m11.744 10.572c-0.48332 0-0.87228 0.38899-0.87228 0.87226v3.5993c0 0.48331 0.389 0.87273 0.87228 0.87273h2.325c0.47359 0 0.53037-0.88947 0.56004-1.3668 0.02969-0.47734-0.14231-0.86436-0.16947-1.2369-0.01453-0.19969-0.03269-0.38868 0.0555-0.66911 0.08817-0.28043 0.30598-0.65533 0.95487-0.65533 0.29522-0.03727 0.84947 0.31942 0.84947 0.03624v-0.58011c0-0.48331-0.389-0.87226-0.87228-0.87226z" />
    <rect fill="white" x="4.862" y="10.572" width="5.4477" height="5.3443" ry=".87241" />
    <path fill="white" d="m19.3 9.0636c-0.364-0.03506-0.03632 0.54444 0.16769 1.4484-0.2368 0.65088-0.33438 1.1687 0.05266 2.0351 1.0566 2.3652 2.9128 7.1394 4.1531 10.306 0.10133-0.14224 0.23564-0.28249 0.39332-0.42064 0.33042-0.28949 0.76757-0.56812 1.2383-0.80333 0.47074-0.23522 0.97398-0.42623 1.4358-0.53652 0.39518-0.09439 0.7588-0.13197 1.0543-0.07714-0.0214-0.05069-0.04682-0.10778-0.06774-0.15748-0.4867-1.1576-0.77798-1.9818-1.0102-2.3721-0.72031-1.2105-1.5579-2.3337-2.3118-3.3876-1.514-2.1165-3.0811-5.84-5.1054-6.0351zm6.5045 3.2109c-0.11143 0.0032-0.20829 0.02653-0.29009 0.06814-0.08901 0.04516-0.08461 0.38116 0.0016 0.81557-0.08814 0.47741-0.18512 1.0116 0.49573 1.8119 2.6169 3.0761 2.5492 3.7747 2.8104 4.4064 0.6411 1.5507 0.80391 3.446 0.96734 4.2628 0.38895 1.9427 0.07422 1.8819-0.05179 1.6352-0.2584-0.5056-0.57433-1.175-0.89723-1.882-0.22608-0.04303-0.57178-0.01619-0.96616 0.07509-0.41201 0.09535-0.87663 0.25707-1.3248 0.45654-0.86012 0.38288-1.656 0.92571-1.912 1.3745 0.89739 2.2539 1.1347 2.9852 0.58263 3.6221-0.07382 0.08514-1.2643-2.0679-1.9662-3.561-0.59368-1.2628-0.71602-1.5994-1.4627-3.1685-0.54369-1.1425-0.38933-0.66617-0.94374-1.6165-0.73097-1.253-2.0085-4.085-2.4978-5.0212-0.95826-1.8333-1.7798-2.545-2.7752-2.7213-0.29752 0.03758-0.15494 0.6472 0.03592 1.8384-0.52916 0.50219-0.318 2.1022 2.0637 9.1244 1.5636 4.6101 2.2116 6.2084 2.6182 8.2725 0.52527 2.6664 1.7997 5.2527 1.8316 5.5124-0.58591-0.71371-1.4311-1.8314-2.0188-1.9082-0.27-1.7442-1.2881-3.2906-2.1682-4.0236-0.96853-0.8068-1.3889-1.0556-1.8005-1.2293-0.28399-0.5396-0.53595-1.0017-0.71687-1.3109-1.2055 2.3775-0.12806 4.0894 0.29173 5.3353 0.42173 1.2517 0.12552 2.2347 0.31784 2.9759 0.34972 1.3478 2.3841 4.2552 2.9254 5.41 6.7136-1.4037 18.489-12.837 19.65-15.891-0.34227-1.4723-0.35142-1.4456-0.63038-2.623-0.27819-1.1742-0.38023-2.3731-0.79807-3.0775-1.0094-1.7016-1.6699-2.4422-2.8838-3.6997-0.66438-1.3921-1.6141-1.903-2.3509-2.0971 0.14509 1.0395 0.14992 1.0231 0.12403 1.8099-0.41654-0.21814-1.0826-1.3323-2.2322-2.4011-1.0731-0.99763-1.07-0.71651-1.7479-1.3109-1.0373-0.90952-1.7979-1.2768-2.2807-1.2635z" />
</svg>
